# xmcd CD database file
#
# Track frame offsets:
#	150
#	62687
#	126192
#	174039
#	248160
#
# Disc length: 4125 seconds
#
# Revision: 0
# Processed by: cddbd v1.5.2PL0 Copyright (c) Steve Scherf et al.
# Submitted via: CDex 1.70beta2
#
DISCID=38101b05
DTITLE=Various Artist - Jazz Roads CD196 - Swing - Jam Sessions Vol.6 (1954)
DYEAR=2006
DGENRE=Jazz
TTITLE0=Buck Clayton Jam Session - How High The Fi
TTITLE1=Buck Clayton Jam Session - Blue Moon
TTITLE2=Buck Clayton Jam Session - Jumpin' At The Woodside
TTITLE3=Mel Powell And His All Stars - I Found A New Baby
TTITLE4=Mel Powell And His All Stars - After You've Gone
EXTD=YEAR: 2006
EXTT0=
EXTT1=
EXTT2=
EXTT3=
EXTT4=
PLAYORDER=
